<?xml version="1.0" standalone="no"?>
<!DOCTYPE svg PUBLIC "-//W3C//DTD SVG 20010904//EN"
 "http://www.w3.org/TR/2001/REC-SVG-20010904/DTD/svg10.dtd">
<svg version="1.0" xmlns="http://www.w3.org/2000/svg"
 width="16.000000pt" height="16.000000pt" viewBox="0 0 16.000000 16.000000"
 preserveAspectRatio="xMidYMid meet">
<metadata>
Created by potrace 1.11, written by Peter Selinger 2001-2013
</metadata>
<g transform="translate(0.000000,16.000000) scale(0.005333,-0.005333)"
fill="#000000" stroke="none">
<path d="M1280 2652 c-94 -46 -278 -170 -333 -224 -15 -15 -42 -37 -60 -49
-52 -37 -189 -199 -202 -239 -4 -14 -21 -41 -36 -60 -16 -19 -29 -40 -29 -47
0 -7 -9 -30 -20 -50 -11 -21 -20 -45 -20 -53 0 -9 -7 -25 -15 -36 -8 -10 -15
-29 -15 -42 0 -12 -4 -30 -9 -40 -21 -40 -30 -69 -35 -107 -7 -53 -11 -69 -30
-142 -9 -34 -18 -101 -20 -150 -2 -48 -5 -92 -7 -98 -1 -5 1 -21 4 -35 3 -14
9 -59 12 -100 10 -142 17 -195 31 -222 8 -15 14 -29 13 -30 -2 -9 49 -121 98
-212 14 -27 43 -66 64 -87 22 -22 39 -42 39 -46 0 -5 19 -21 43 -37 23 -17 46
-36 50 -43 4 -7 14 -13 21 -13 8 0 16 -7 20 -15 3 -8 13 -15 22 -15 9 0 33 -8
53 -19 48 -24 97 -41 146 -51 22 -5 49 -11 60 -14 65 -18 107 -26 160 -32 33
-3 63 -8 68 -11 5 -3 6 -22 2 -42 -8 -41 -12 -74 -20 -186 -3 -44 -7 -86 -10
-92 -3 -10 23 -13 110 -13 131 0 123 -6 129 107 1 38 6 75 10 81 12 19 16 116
7 149 -11 38 -4 46 59 64 25 7 52 18 61 26 8 7 22 13 29 13 23 0 102 32 142
57 21 13 42 23 48 23 5 0 10 5 10 10 0 6 9 10 19 10 11 0 33 11 50 26 16 14
32 24 35 22 3 -2 14 5 25 14 11 9 34 24 52 33 64 34 209 163 209 187 0 5 6 8
14 8 8 0 17 9 21 20 3 11 21 32 39 47 19 16 44 48 57 72 66 121 79 147 79 157
0 5 10 30 22 55 12 24 25 67 30 94 13 83 27 239 22 247 -3 5 -7 38 -9 75 -2
37 -8 78 -14 92 -9 25 -23 75 -26 96 -1 12 -21 59 -41 99 -8 16 -14 38 -14 48
0 10 -9 28 -20 40 -11 12 -20 29 -20 38 0 9 -8 25 -18 36 -10 10 -18 24 -19
29 0 6 -10 15 -22 21 -12 6 -22 13 -21 15 1 2 -4 18 -12 34 -24 55 -189 225
-217 225 -6 0 -18 11 -27 25 -9 14 -22 25 -29 25 -7 0 -20 11 -29 24 -8 14
-25 28 -37 31 -11 4 -30 16 -40 26 -10 10 -26 19 -35 19 -9 0 -22 7 -28 16 -6
8 -29 20 -51 25 -51 12 -54 14 -88 27 -16 7 -38 12 -50 12 -13 0 -31 6 -42 13
-11 8 -40 13 -64 12 -34 -2 -55 4 -91 26 -38 23 -124 50 -159 49 -3 0 -49 -22
-101 -48z m472 -258 c15 -8 38 -14 51 -14 14 0 30 -7 37 -14 6 -8 27 -20 46
-26 19 -6 34 -15 34 -20 0 -5 8 -11 19 -15 18 -5 30 -15 118 -96 23 -22 46
-39 52 -39 5 0 13 -9 16 -21 4 -11 9 -18 12 -15 9 9 43 -35 62 -81 6 -12 16
-25 23 -30 20 -12 56 -68 64 -97 3 -14 12 -30 20 -36 12 -11 46 -106 50 -141
0 -9 5 -22 9 -29 28 -45 34 -223 9 -251 -10 -11 -11 -18 -3 -26 10 -10 8 -31
-14 -153 -4 -19 -56 -123 -66 -130 -3 -3 -15 -24 -25 -48 -12 -26 -63 -87
-135 -159 -132 -133 -143 -143 -159 -143 -7 0 -12 -4 -12 -10 0 -5 -5 -10 -11
-10 -6 0 -30 -13 -54 -30 -24 -16 -48 -30 -53 -30 -5 0 -15 -6 -21 -14 -7 -8
-23 -17 -37 -20 -14 -4 -49 -18 -77 -31 -28 -14 -56 -25 -62 -25 -7 0 -29 -11
-49 -25 -20 -14 -49 -25 -64 -25 -16 0 -32 -4 -38 -10 -18 -18 -271 -32 -341
-18 -77 15 -127 31 -143 44 -8 7 -18 13 -23 13 -37 3 -176 134 -226 213 -28
43 -83 178 -80 194 1 5 1 11 0 14 -6 18 -12 144 -13 250 -1 133 13 245 43 349
11 35 19 73 19 85 0 11 9 35 20 51 11 17 20 38 20 47 0 10 8 34 19 55 10 21
31 64 46 95 15 31 33 62 40 68 6 5 24 29 39 53 15 23 45 55 67 71 21 17 39 35
39 42 0 20 38 55 132 122 79 57 118 75 118 54 0 -5 13 -18 30 -30 22 -17 34
-20 53 -13 13 5 30 5 39 0 12 -7 27 -2 54 16 20 14 45 25 55 25 10 0 24 6 32
14 27 27 165 27 219 0z"/>
<path d="M1589 1867 c-34 -23 -47 -55 -33 -85 8 -18 10 -28 12 -52 2 -19 54
-46 103 -54 51 -9 79 25 75 90 -3 50 -24 76 -90 109 -35 18 -27 19 -67 -8z"/>
<path d="M1128 1763 c-32 -16 -31 -13 -14 -73 26 -88 26 -87 71 -100 37 -10
47 -9 82 9 35 17 41 26 45 58 3 24 -1 47 -10 61 -32 50 -121 73 -174 45z"/>
<path d="M1803 1322 c-12 -4 -48 -30 -80 -58 -91 -80 -120 -104 -129 -104 -5
0 -47 -18 -93 -41 -46 -22 -97 -43 -112 -46 -16 -3 -34 -12 -40 -19 -25 -30
-109 -6 -109 32 0 19 -52 64 -74 64 -13 0 -39 6 -58 14 -20 9 -40 11 -48 6 -7
-4 -21 -7 -31 -5 -23 5 -42 -43 -33 -80 16 -63 101 -174 155 -204 75 -40 173
-63 208 -48 27 11 39 14 79 19 12 1 22 6 22 10 0 4 6 8 14 8 8 0 22 7 30 16 9
9 31 18 49 21 17 3 39 10 47 16 26 20 59 37 74 37 39 0 166 90 166 117 0 8 4
12 9 9 5 -4 11 -1 13 4 3 9 16 15 48 19 14 2 41 64 44 105 4 41 2 48 -30 76
-19 16 -40 30 -47 30 -7 0 -21 2 -32 4 -11 3 -30 1 -42 -2z"/>
</g>
</svg>
